<?xml version="1.0" encoding="utf-8"?>
<!-- Generator: Adobe Illustrator 16.0.0, SVG Export Plug-In . SVG Version: 6.00 Build 0)  -->
<!DOCTYPE svg PUBLIC "-//W3C//DTD SVG 1.1//EN" "http://www.w3.org/Graphics/SVG/1.1/DTD/svg11.dtd">
<svg version="1.1" id="Layer_1" xmlns="http://www.w3.org/2000/svg" xmlns:xlink="http://www.w3.org/1999/xlink" x="0px" y="0px"
	 width="145.532px" height="133.175px" viewBox="0 0 145.532 133.175" enable-background="new 0 0 145.532 133.175"
	 xml:space="preserve">
<g>
	<g>
		<path fill="#3482E2" d="M41.595,66.271l-9.623-3.413c-3.935-1.448-5.897-3.416-5.897-5.897c0-1.448,0.543-2.639,1.628-3.57
			c1.088-0.932,2.665-1.396,4.735-1.396c5.794,0,13.036,1.965,21.728,5.897c1.966-1.447,3.621-3.905,4.969-7.372
			c1.342-3.467,1.912-6.647,1.705-9.546c-3.518-1.757-8.02-3.283-13.502-4.578c-5.486-1.292-10.502-1.94-15.055-1.94
			c-9.211,0-16.529,2.305-21.961,6.907c-5.432,4.604-8.146,10.84-8.146,18.701c0,10.763,6.463,18.523,19.398,23.282l8.537,3.258
			c4.756,1.554,7.139,3.879,7.139,6.984c0,1.656-0.777,2.977-2.328,3.956c-1.554,0.985-3.779,1.477-6.676,1.477
			c-6.105,0-13.295-2.173-21.572-6.52c-1.76,1.862-3.284,4.398-4.578,7.608c-1.293,3.205-1.992,6.155-2.095,8.845
			c3.763,2.115,7.667,3.769,11.701,5.001c13.792-7.395,30.89-15.547,50.526-22.902C62.148,79.368,55.271,71.107,41.595,66.271z"/>
	</g>
	<g>
		<path fill="#3482E2" d="M98.552,59.753c3.105-3.415,6.673-5.122,10.708-5.122c6.595,0.105,9.903,6.778,9.933,20.021
			c7.967-1.597,16.163-2.906,24.524-3.93c-0.562-10.011-2.8-18.178-6.73-24.472c-4.589-7.346-11.419-11.02-20.491-11.02
			c-6.602,0-12.58,1.761-17.943,5.275v-25.92c0-5.376-1.035-9.156-3.104-11.328C93.376,1.086,89.96,0,85.204,0h-9.156l-1.086,1.086
			v85.446c7.565-2.54,15.43-4.929,23.59-7.084V59.753z"/>
	</g>
</g>
<path fill="#3482E2" d="M140.333,96.332c0,0-0.505-0.005-1.452-0.015c-0.874-0.017-2.325,0.032-4.115,0.08
	c-1.813,0.098-4.013,0.181-6.553,0.409c-2.538,0.163-5.401,0.518-8.532,0.847c-1.563,0.214-3.189,0.437-4.873,0.667
	c-0.844,0.117-1.701,0.236-2.571,0.356c-0.867,0.147-1.748,0.296-2.641,0.447c-1.786,0.306-3.622,0.619-5.499,0.94
	c-1.867,0.38-3.775,0.769-5.715,1.164c-3.898,0.732-7.86,1.791-11.923,2.74c-4.047,1.011-8.111,2.222-12.21,3.337
	c-4.04,1.296-8.104,2.543-12.077,3.864c-3.941,1.42-7.82,2.817-11.574,4.17c-3.705,1.495-7.287,2.94-10.684,4.312
	c-1.713,0.658-3.322,1.423-4.897,2.126c-1.573,0.709-3.094,1.394-4.553,2.052c-2.914,1.325-5.621,2.481-7.925,3.692
	c-2.329,1.166-4.359,2.182-6.032,3.02c-3.349,1.676-5.262,2.634-5.262,2.634s1.838-1.095,5.054-3.01
	c1.61-0.959,3.565-2.124,5.809-3.459c2.22-1.383,4.836-2.733,7.658-4.275c1.415-0.766,2.888-1.563,4.413-2.39
	c1.528-0.821,3.092-1.708,4.76-2.493c3.313-1.628,6.808-3.345,10.423-5.121c3.684-1.64,7.491-3.335,11.359-5.057
	c3.911-1.627,7.927-3.188,11.929-4.802c4.064-1.433,8.104-2.965,12.144-4.294c4.058-1.268,8.022-2.641,11.947-3.682
	c1.956-0.55,3.879-1.09,5.761-1.618c1.9-0.471,3.76-0.931,5.569-1.378c0.906-0.223,1.8-0.441,2.681-0.657
	c0.888-0.19,1.762-0.378,2.621-0.563c1.722-0.364,3.385-0.717,4.981-1.056c3.219-0.58,6.162-1.163,8.81-1.531
	c2.631-0.431,4.962-0.693,6.876-0.935c1.943-0.196,3.425-0.356,4.555-0.422c1.057-0.065,1.62-0.102,1.62-0.102
	c2.759-0.173,5.136,1.924,5.309,4.684c0.173,2.759-1.924,5.136-4.684,5.308c-0.117,0.008-0.233,0.011-0.35,0.01L140.333,96.332z"/>
</svg>
