<?xml version="1.0" encoding="utf-8"?>
<!-- Generator: Adobe Illustrator 16.0.0, SVG Export Plug-In . SVG Version: 6.00 Build 0)  -->
<!DOCTYPE svg PUBLIC "-//W3C//DTD SVG 1.1//EN" "http://www.w3.org/Graphics/SVG/1.1/DTD/svg11.dtd">
<svg version="1.1" id="Layer_1" xmlns="http://www.w3.org/2000/svg" xmlns:xlink="http://www.w3.org/1999/xlink" x="0px" y="0px"
	 width="145.532px" height="133.175px" viewBox="0 0 145.532 133.175" enable-background="new 0 0 145.532 133.175"
	 xml:space="preserve">
<g>
	<g>
		<path fill="#FFFFFF" d="M41.595,66.271l-9.623-3.413c-3.935-1.448-5.897-3.416-5.897-5.897c0-1.448,0.543-2.639,1.628-3.57
			c1.088-0.932,2.665-1.396,4.735-1.396c5.794,0,13.036,1.965,21.728,5.897c1.966-1.447,3.621-3.905,4.969-7.372
			c1.342-3.467,1.912-6.647,1.705-9.546c-3.518-1.757-8.02-3.283-13.502-4.578c-5.486-1.292-10.502-1.94-15.055-1.94
			c-9.211,0-16.529,2.305-21.961,6.907c-5.432,4.604-8.146,10.84-8.146,18.701c0,10.764,6.463,18.523,19.398,23.282l8.537,3.258
			c4.756,1.554,7.139,3.879,7.139,6.983c0,1.656-0.777,2.978-2.328,3.957c-1.554,0.984-3.779,1.477-6.676,1.477
			c-6.105,0-13.295-2.173-21.572-6.52c-1.76,1.861-3.284,4.397-4.578,7.607c-1.293,3.205-1.992,6.155-2.095,8.846
			c3.763,2.114,7.667,3.769,11.701,5c13.792-7.395,30.89-15.547,50.526-22.902C62.148,79.369,55.271,71.107,41.595,66.271z"/>
	</g>
	<g>
		<path fill="#FFFFFF" d="M98.551,59.753c3.105-3.415,6.674-5.122,10.709-5.122c6.595,0.105,9.902,6.778,9.933,20.021
			c7.968-1.597,16.163-2.906,24.524-3.93c-0.563-10.011-2.801-18.178-6.73-24.472c-4.589-7.346-11.419-11.02-20.49-11.02
			c-6.603,0-12.58,1.761-17.943,5.275v-25.92c0-5.376-1.035-9.156-3.104-11.328C93.375,1.086,89.959,0,85.204,0h-9.156l-1.086,1.086
			v85.447c7.565-2.541,15.431-4.93,23.59-7.084V59.753z"/>
	</g>
</g>
<path fill="#FFFFFF" d="M140.333,96.332c0,0-0.504-0.004-1.451-0.015c-0.875-0.017-2.325,0.032-4.115,0.08
	c-1.813,0.099-4.014,0.181-6.553,0.409c-2.539,0.162-5.401,0.518-8.532,0.847c-1.563,0.214-3.188,0.437-4.873,0.667
	c-0.845,0.117-1.701,0.236-2.571,0.355c-0.867,0.148-1.748,0.297-2.641,0.447c-1.786,0.307-3.622,0.619-5.499,0.94
	c-1.867,0.38-3.775,0.769-5.716,1.164c-3.897,0.731-7.859,1.791-11.922,2.739c-4.047,1.012-8.111,2.223-12.211,3.338
	c-4.04,1.296-8.104,2.543-12.077,3.863c-3.941,1.42-7.82,2.817-11.574,4.17c-3.705,1.496-7.287,2.94-10.684,4.313
	c-1.713,0.658-3.322,1.424-4.897,2.126c-1.573,0.709-3.094,1.394-4.553,2.052c-2.914,1.325-5.621,2.481-7.925,3.692
	c-2.329,1.166-4.359,2.183-6.032,3.021c-3.349,1.676-5.262,2.633-5.262,2.633s1.838-1.094,5.054-3.01
	c1.61-0.959,3.565-2.123,5.809-3.459c2.22-1.383,4.836-2.732,7.658-4.274c1.415-0.767,2.888-1.563,4.413-2.39
	c1.528-0.822,3.092-1.709,4.76-2.494c3.313-1.627,6.808-3.344,10.423-5.121c3.684-1.639,7.491-3.334,11.359-5.057
	c3.911-1.627,7.927-3.188,11.929-4.802c4.063-1.433,8.104-2.965,12.144-4.294c4.059-1.268,8.022-2.641,11.947-3.682
	c1.956-0.551,3.879-1.09,5.762-1.618c1.899-0.472,3.76-0.931,5.568-1.378c0.906-0.223,1.801-0.441,2.682-0.657
	c0.888-0.19,1.762-0.378,2.621-0.563c1.722-0.363,3.385-0.717,4.98-1.056c3.219-0.579,6.162-1.163,8.811-1.53
	c2.631-0.432,4.961-0.693,6.875-0.936c1.943-0.195,3.426-0.355,4.556-0.422c1.057-0.064,1.62-0.102,1.62-0.102
	c2.759-0.174,5.136,1.924,5.309,4.684c0.174,2.759-1.924,5.136-4.684,5.308c-0.117,0.009-0.233,0.011-0.35,0.011H140.333z"/>
</svg>
